<svg width="18" height="16" viewBox="0 0 18 16" fill="none" xmlns="http://www.w3.org/2000/svg">
<path d="M2.25 12.9375C2.25 13.2469 2.50172 13.5 2.8125 13.5H16.875C17.4973 13.5 18 14.0027 18 14.625C18 15.2473 17.4973 15.75 16.875 15.75H2.8125C1.2593 15.75 0 14.4914 0 12.9375V1.125C0 0.503789 0.503789 0 1.125 0C1.74621 0 2.25 0.503789 2.25 1.125V12.9375ZM12.0445 8.66953C11.6051 9.10898 10.8949 9.10898 10.4555 8.66953L8.4375 6.65508L5.29453 9.79453C4.85508 10.234 4.14492 10.234 3.70547 9.79453C3.26531 9.35508 3.26531 8.64492 3.70547 8.20547L7.64297 4.26797C8.08242 3.82852 8.79258 3.82852 9.23203 4.26797L11.25 6.28242L14.9555 2.58047C15.3949 2.14031 16.1051 2.14031 16.5445 2.58047C16.984 3.01992 16.984 3.73008 16.5445 4.16953L12.0445 8.66953Z" fill="#0065FC"/>
</svg>
